{
  "title": "Ghostbusters.2016.TS.XviD-BiGDADDYVAiN",
  "uid": 15373430,
  "size": 1199476561,
  "categoryP": "video",
  "categoryS": "movies",
  "magnet": "?xt=urn:btih:1745c7f447442460f4a89ce11a0dd9822af662b0&amp;dn=Ghostbusters.2016.TS.XviD-BiGDADDYVAiN&amp;tr=udp%3A%2F%2Ftracker.leechers-paradise.org%3A6969&amp;tr=udp%3A%2F%2Fzer0day.ch%3A1337&amp;tr=udp%3A%2F%2Fopen.demonii.com%3A1337&amp;tr=udp%3A%2F%2Ftracker.coppersurfer.tk%3A6969&amp;tr=udp%3A%2F%2Fexodus.desync.com%3A6969",
  "seeders": 1362,
  "leechers": 236,
  "uploader": "xxxlavalxxx",
  "files": 4,
  "time": 1469167941,
  "description": "http://extraimago.com/image/aALx\r\n \nhttp://www.imdb.com/title/tt1289401/\r\n\r\n\r\nFollowing a ghost invasion of Manhattan, paranormal enthusiasts Erin Gilbert and Abby Yates, nuclear engineer Jillian Holtzmann, and subway worker Patty Tolan band together to stop the otherworldly threat.\r\n\r\nDirector: Paul Feig\r\nWriters: Katie Dippold, Paul Feig\r\nStars: Melissa McCarthy, Kristen Wiig, Kate McKinnon \r\nGenres: Comedy | Fantasy | Sci-Fi\r\nCountry: USA\r\nLanguage: English\r\n\r\n\r\nBasic Information\r\nFormat                      : AVI\r\nFormat/Info                 : Audio Video Interleave\r\nFile size                   : 1.10 GiB\r\nDuration                    : 1 h 55 min\r\nOverall bit rate            : 1 366 kb/s\r\nWriting application         : VirtualDubMod 1.5.10.2 (build 2540/release)\r\nWriting library             : VirtualDubMod build 2540/release\r\n\r\nVideo\r\nID                          : 0\r\nFormat                      : MPEG-4 Visual\r\nFormat profile              : Advanced   \r\nFormat settings, BVOP       : 2\r\nFormat settings, QPel       : No\r\nFormat settings, GMC        : No warppoints\r\nFormat settings, Matrix     : Default (H.263)\r\nMuxing mode                 : Packed bitstream\r\nCodec ID                    : XVID\r\nCodec ID/Hint               : XviD\r\nDuration                    : 1 h 55 min\r\nBit rate                    : 1 163 kb/s\r\nWidth                       : 736 pixels\r\nHeight                      : 352 pixels\r\nDisplay aspect ratio        : 2.091\r\nFrame rate                  : 29.970 (30000/1001) FPS\r\nColor space                 : YUV\r\nChroma subsampling          : 4:2:0\r\nBit depth                   : 8 bits\r\nScan type                   : Progressive\r\nCompression mode            : Lossy\r\nBits/(Pixel*Frame)          : 0.150\r\nStream size                 : 960 MiB (85%)\r\nWriting library             : XviD 67\r\n\r\nAudio\r\nID                          : 1\r\nFormat                      : MPEG Audio\r\nFormat version              : Version 1\r\nFormat profile              : Layer 3\r\nMode                        : Joint stereo\r\nMode extension              : MS Stereo\r\nCodec ID                    : 55\r\nCodec ID/Hint               : MP3\r\nDuration                    : 1 h 55 min\r\nBit rate mode               : Constant\r\nBit rate                    : 192 kb/s\r\nChannel(s)                  : 2 channels\r\nSampling rate               : 48.0 kHz\r\nCompression mode            : Lossy\r\nStream size                 : 159 MiB (14%)\r\nAlignment                   : Aligned on interleaves\r\nInterleave, duration        : 33  ms (1.00 video frame)\r\nInterleave, preload duratio : 504  ms\r\n\r\n\r\nSOURCE......: ViDEO...DADDY [TY DADDY] 1st to bring this to the net... \r\n............: AUDiO...DADDY\r\nSAMPLE......: Yippers \r\nADDED NOTE..: Who you gonna call? Poo Shiners!!! :wink:\r\nLooks like we have a call to sort out yet another turd... source used was dark, turd like and over denoised. perspective looks off however, pulling it in would lose too much vid so left alone. \r\nas usual, took our poo shine, and polished this up. got some dark spots, first 2 minutes are whacked... audio is pretty good... \r\n\r\nDISCLAiMER!!! no encoders were hurt durning the encode/re-ecode of this video... maybe some feelings but just giving you all the love your deserve\r\n\r\nps hear there is a bigger better copy coming out... we will wait by the phone till the shiners are called again... LOL!!!!!!\r\n\r\n \nhttp://extraimago.com/image/aALA \nhttp://extraimago.com/image/aALW \nhttp://extraimago.com/image/aALf \nhttp://extraimago.com/image/aAQ8 \nhttp://extraimago.com/image/aAQa \nhttp://extraimago.com/image/aAQw \nhttp://extraimago.com/image/aAQ2 \nhttp://extraimago.com/image/aAQN",
  "parsed": {
    "xt": "urn:btih:1745c7f447442460f4a89ce11a0dd9822af662b0",
    "dn": "Ghostbusters.2016.TS.XviD-BiGDADDYVAiN",
    "tr": [
      "udp://exodus.desync.com:6969",
      "udp://open.demonii.com:1337",
      "udp://tracker.coppersurfer.tk:6969",
      "udp://tracker.leechers-paradise.org:6969",
      "udp://zer0day.ch:1337"
    ],
    "infoHash": "1745c7f447442460f4a89ce11a0dd9822af662b0",
    "infoHashBuffer": {
      "type": "Buffer",
      "data": [
        23,
        69,
        199,
        244,
        71,
        68,
        36,
        96,
        244,
        168,
        156,
        225,
        26,
        13,
        217,
        130,
        42,
        246,
        98,
        176
      ]
    },
    "name": "Ghostbusters.2016.TS.XviD-BiGDADDYVAiN",
    "announce": [
      "udp://exodus.desync.com:6969",
      "udp://open.demonii.com:1337",
      "udp://tracker.coppersurfer.tk:6969",
      "udp://tracker.leechers-paradise.org:6969",
      "udp://zer0day.ch:1337"
    ],
    "urlList": []
  },
  "previous": 1598,
  "peers": 100,
  "last_updated": "2016-12-24T18:14:14.874Z"
}